<?xml version="1.0" ?><!DOCTYPE svg  PUBLIC '-//W3C//DTD SVG 1.1//EN'  'http://www.w3.org/Graphics/SVG/1.1/DTD/svg11.dtd'><svg enable-background="new 0 0 512 512" height="512px" id="Layer_1" version="1.1" viewBox="0 0 512 512" width="512px" xml:space="preserve" xmlns="http://www.w3.org/2000/svg" xmlns:xlink="http://www.w3.org/1999/xlink"><g><path d="M510.689,478.854c0,17.561-14.275,31.836-31.836,31.836H33.146c-17.56,0-31.836-14.275-31.836-31.836   V33.146c0-17.56,14.276-31.836,31.836-31.836h445.707c17.561,0,31.836,14.276,31.836,31.836V478.854z" fill="#E04C40"/></g><g><path d="M110.664,130.22h290.869c15.32,0,27.82,12.5,27.82,27.817v195.93c0,15.324-12.5,27.813-27.82,27.813   H110.664c-15.522,0-28.018-12.488-28.018-27.813v-195.93C82.646,142.72,95.142,130.22,110.664,130.22L110.664,130.22z" fill="#FFFFFF"/><path d="M256.002,290.195l137.826-97.31v190.148h9.16c15.475,0,28.1-12.613,28.1-28.092V166.622v-9.568   c0-13.031-8.965-24.023-21.184-27.284L256.002,238.487L102.288,129.77c-12.22,3.053-21.374,14.251-21.374,27.284v9.363v188.526   c0,15.477,12.619,28.092,28.298,28.092h8.956V192.886L256.002,290.195z" fill="#DF4B3F"/><path d="M393.828,192.886v190.149h9.16c15.475,0,28.1-12.613,28.1-28.092V166.622L393.828,192.886z" fill="#DF4B3F"/></g></svg>